<?xml version="1.0" encoding="utf-8"?>
<!-- Generator: Adobe Illustrator 19.0.0, SVG Export Plug-In . SVG Version: 6.00 Build 0)  -->
<svg version="1.1" id="Слой_1" xmlns="http://www.w3.org/2000/svg" xmlns:xlink="http://www.w3.org/1999/xlink" x="0px" y="0px"
	 viewBox="0 0 120 120" style="enable-background:new 0 0 120 120;" xml:space="preserve">
<style type="text/css">
	.st0{fill:#222222;}
	.st1{fill:#F47A24;}
	.st2{fill:#FFFFFF;stroke:#F47A24;stroke-width:0.1;stroke-miterlimit:10;}
</style>
<g>
	<path id="XMLID_9_" class="st0" d="M95.1,35.1c0,19.4-29.6,39.5-35.1,84.9c-5.5-45.4-35.1-65.5-35.1-84.9S40.6,0,60,0
		S95.1,15.7,95.1,35.1z"/>
	<circle id="XMLID_8_" class="st1" cx="60" cy="34.2" r="31"/>
	<path class="st2" d="M74.7,29.9l-2.2-1.7c-0.5-0.5-0.7-0.7-1.4-0.7h-3.7c-0.7,0-1.2,0.5-1.2,1.2v1.2c0,0.8,0.6,1.2,1.2,1.2h6.1
		c3.2,0,5.8,3,6.1,6.1c0.1,0.8-1.1,0.8-1.2,0c-0.3-2.5-2.3-4.9-4.9-4.9h-6.1c-1.4,0-2.4-1.1-2.5-2.5v-1.2c0-1.3,1.1-2.5,2.5-2.5H71
		c1.1,0,1.6,0.5,2.2,1.1l2.7,2.5C76.5,30.4,75.2,30.4,74.7,29.9z M46.7,33.7c2.3,0,4.2,1.9,4.2,4.2s-1.9,4.2-4.2,4.2
		c-2.3,0-4.2-1.9-4.2-4.2C42.5,35.6,44.4,33.7,46.7,33.7z M46.7,34.8c-1.7,0-3.1,1.4-3.1,3.1c0,1.7,1.4,3.1,3.1,3.1
		c1.7,0,3.1-1.4,3.1-3.1C49.8,36.2,48.4,34.8,46.7,34.8z M73.5,33.7c2.3,0,4.2,1.9,4.2,4.2s-1.9,4.2-4.2,4.2c-2.3,0-4.2-1.9-4.2-4.2
		C69.3,35.6,71.2,33.7,73.5,33.7z M73.5,34.8c-1.7,0-3.1,1.4-3.1,3.1c0,1.7,1.4,3.1,3.1,3.1c1.7,0,3.1-1.4,3.1-3.1
		C76.6,36.2,75.2,34.8,73.5,34.8z M52.6,38.5h14.7c0.8,0,0.8,1.2,0,1.2H52.6C51.9,39.7,51.9,38.5,52.6,38.5z M52.6,29.9l3.5-2.5
		c0.7-0.7,1.6-1.1,2.7-1.1h2.5c1.3,0,2.4,1.1,2.5,2.5v1.2c0,1.3-1.1,2.5-2.5,2.5H46.5c-2.6,0-4.7,2.5-5,5c-0.1,0.8-1.2,0.6-1.1-0.1
		c0.3-3.1,3-6.1,6.1-6.1h14.7c0.6,0,1.2-0.4,1.2-1.2l0-1.3c0-0.7-0.6-1.2-1.2-1.2h-2.5c-0.7,0-1.4,0.2-1.9,0.7l-3,1.7
		C53.3,30.4,52.1,30.4,52.6,29.9z"/>
</g>
</svg>
